<?xml version="1.0"?>
<!DOCTYPE svg PUBLIC "-//W3C//DTD SVG 1.1//EN" "http://www.w3.org/Graphics/SVG/1.1/DTD/svg11.dtd">
<svg version='1.1' width='344px' height='202px' xmlns='http://www.w3.org/2000/svg' xmlns:xlink='http://www.w3.org/1999/xlink'>
	<g transform="translate(-209.25,-426.434)">
		<path d="M 209.25 486 L 213.75 485.25 L 214 485.25 L 217 484.5 L 217.25 484.5 L 218.75 484 L 276.5 470 L 402.25 438.25 L 403.25 437.75 L 412.5 435.75 Q 477.75 417.5 542.5 435 Q 558.75 475.25 550 524.25 L 547.25 539.25 L 539.5 568 L 529.5 595 L 513.75 627.5 L 513.25 627.75 L 501 607 L 487.25 588 L 471 569 L 453.5 551.5 L 434.5 535.5 Q 370.5 489.5 317.25 483 L 286.75 507.5 L 276.25 517.25 Q 235.5 480.75 211.5 486 Z" fill="#FFFFFF"/>
	</g>
</svg>
