<?xml version="1.0"?>
<!DOCTYPE svg PUBLIC "-//W3C//DTD SVG 1.1//EN" "http://www.w3.org/Graphics/SVG/1.1/DTD/svg11.dtd">
<svg version='1.1' width='50px' height='9px' xmlns='http://www.w3.org/2000/svg' xmlns:xlink='http://www.w3.org/1999/xlink'>
	<g transform="translate(24.8,4.25)">
		<path d="M -155.7 866.5 Q -156.95 867.7 -158.8 867.7 Q -160.55 867.7 -161.8 866.5 Q -163 865.25 -163 863.45 Q -163 861.65 -161.8 860.4 Q -160.55 859.2 -158.8 859.2 Q -156.95 859.2 -155.7 860.4 Q -154.45 861.65 -154.45 863.45 Q -154.45 865.25 -155.7 866.5 Z" transform="translate(138.2,-863.45)" fill="#000000"/>
		<path d="M -142.5 863.45 Q -142.5 861.65 -141.3 860.4 Q -140.05 859.2 -138.3 859.2 Q -136.45 859.2 -135.2 860.4 Q -133.95 861.65 -133.95 863.45 Q -133.95 865.25 -135.2 866.5 Q -136.45 867.7 -138.3 867.7 Q -140.05 867.7 -141.3 866.5 Q -142.5 865.25 -142.5 863.45 Z" transform="translate(138.2,-863.45)" fill="#000000"/>
		<path d="M -117.8 867.7 Q -119.55 867.7 -120.8 866.5 Q -122 865.25 -122 863.45 Q -122 861.65 -120.8 860.4 Q -119.55 859.2 -117.8 859.2 Q -115.95 859.2 -114.7 860.4 Q -113.45 861.65 -113.45 863.45 Q -113.45 865.25 -114.7 866.5 Q -115.95 867.7 -117.8 867.7 Z" transform="translate(138.2,-863.45)" fill="#000000"/>
	</g>
</svg>
