<?xml version="1.0"?>
<!DOCTYPE svg PUBLIC "-//W3C//DTD SVG 1.1//EN" "http://www.w3.org/Graphics/SVG/1.1/DTD/svg11.dtd">
<svg version='1.1' width='535px' height='219px' xmlns='http://www.w3.org/2000/svg' xmlns:xlink='http://www.w3.org/1999/xlink'>
	<g transform="translate(-118.5,-360)">
		<path d="M 125 371.75 L 118.5 360 L 147.5 362 L 213.75 368.25 L 243.5 371.75 L 307.75 381 L 336.5 386 L 392 397.25 L 429.75 406.25 L 479.5 419.75 L 480 420 L 481.75 420.5 L 482 420.5 L 620.25 458.25 L 620.75 458.5 L 622.5 459 L 622.75 459 L 641.5 463.75 L 646.5 466.25 Q 651.25 469.25 652.75 484 L 625.75 472.5 Q 606.5 491.5 589.25 541.25 L 521.75 546.75 L 477 551.25 L 304.5 570 L 250 574.75 L 179.25 579 L 159 477.25 L 148.25 433.75 L 140.5 408.75 L 132.5 388 Z" fill="#FFFFFF"/>
	</g>
</svg>
