<?xml version="1.0"?>
<!DOCTYPE svg PUBLIC "-//W3C//DTD SVG 1.1//EN" "http://www.w3.org/Graphics/SVG/1.1/DTD/svg11.dtd">
<svg version='1.1' width='494px' height='151px' xmlns='http://www.w3.org/2000/svg' xmlns:xlink='http://www.w3.org/1999/xlink'>
	<g transform="translate(-575.15,77.8)">
		<path d="M 717.4 -77.45 Q 728.4 -77.45 735.95 -75.7 Q 743.5 -74 749.55 -69.5 Q 755.4 -65.1 758.25 -58.1 Q 761.15 -51.1 761.15 -41.05 L 761.15 32.05 L 743.25 32.05 L 743.25 20.65 Q 741.05 22.3 737.4 25.25 Q 733.65 28.15 730.2 29.85 Q 725.45 32.35 721.05 33.7 Q 716.55 35 708.5 35 Q 701.9 35 695.95 32.55 Q 690 30.05 685.55 25.55 Q 681.2 21.15 678.65 14.75 Q 676.05 8.2 676.05 1.05 Q 676.05 -10.05 680.75 -17.8 Q 685.45 -25.65 695.55 -30.25 Q 704.55 -34.35 716.8 -35.9 Q 729.05 -37.55 743.25 -38.3 L 743.25 -41.75 Q 743.25 -48.05 741.3 -51.9 Q 739.4 -55.8 735.95 -57.9 Q 732.5 -60.1 727.55 -60.8 Q 722.55 -61.55 717.3 -61.55 Q 711.1 -61.55 702.65 -59.65 Q 694.25 -57.8 685.8 -54.25 L 684.75 -54.25 L 684.75 -72.55 Q 689.75 -74 699 -75.7 Q 708.3 -77.45 717.4 -77.45 Z M 694.6 -0.1 Q 694.6 9.1 699.8 13.75 Q 704.95 18.45 714.9 18.45 Q 723.4 18.45 730.3 14.8 Q 737.2 11.1 743.25 5.75 L 743.25 -23.95 Q 736.8 -23.35 727.05 -22.3 Q 717.2 -21.35 711.15 -19.55 Q 704 -17.35 699.3 -12.75 Q 694.6 -8.25 694.6 -0.1 Z M 664.85 -24.2 Q 664.85 2.5 652.1 18.35 Q 639.3 34.15 619.75 34.15 Q 611.8 34.15 605.7 32.35 Q 599.55 30.5 593.15 26.7 L 593.15 71.5 L 575.15 71.5 L 575.15 -74.85 L 593.15 -74.85 L 593.15 -63.65 Q 599.85 -69.7 608.1 -73.7 Q 616.2 -77.8 625.9 -77.8 Q 644.25 -77.8 654.6 -63.25 Q 664.85 -48.7 664.85 -24.2 Z M 807.1 -74.1 Q 815.3 -77.8 824.1 -77.8 Q 832.45 -77.8 838.55 -75.8 Q 844.6 -73.9 850.75 -70.25 L 851.8 -74.85 L 868.7 -74.85 L 868.7 19.9 Q 868.7 47.1 856.85 59.8 Q 845 72.55 820.6 72.55 Q 812.75 72.55 804.6 71.3 Q 796.35 70.05 789.3 67.95 L 789.3 49.2 L 790.25 49.2 Q 792.05 49.95 795.6 51.3 Q 799.15 52.55 803.65 53.7 Q 808.6 54.9 812.85 55.7 Q 817.05 56.45 822 56.45 Q 830.35 56.45 836.2 54.25 Q 841.9 52.05 845.2 48.15 Q 848.25 44.2 849.5 39.05 Q 850.75 33.85 850.75 27.25 L 850.75 17.9 Q 843.45 24.2 836.45 27.25 Q 829.5 30.25 818.95 30.25 Q 800.7 30.25 789.85 16.65 Q 779.05 3.05 779.05 -22.4 Q 779.05 -35.7 782.8 -45.95 Q 786.5 -56.3 792.85 -63.45 Q 798.85 -70.35 807.1 -74.1 Z M 797.6 -22.8 Q 797.6 -5 803.65 4.3 Q 809.6 13.6 822.95 13.6 Q 829.95 13.6 837.45 10.8 Q 844.8 8.05 850.75 3.05 L 850.75 -55.6 Q 844.05 -58.85 838.4 -60.2 Q 832.65 -61.65 827 -61.65 Q 813.3 -61.65 805.45 -51.6 Q 797.6 -41.55 797.6 -22.8 Z M 967.9 -65.95 Q 973.65 -59.8 976.7 -50.9 Q 979.75 -42.1 979.75 -29.3 L 979.75 -19.55 L 905.7 -19.55 Q 905.7 -0.85 915.05 9 Q 924.45 18.85 941 18.85 Q 946.9 18.85 952.65 17.5 Q 958.3 16.15 962.9 14.05 Q 967.8 11.85 971.15 9.85 Q 974.5 7.75 976.7 5.9 L 977.75 5.9 L 977.75 25.55 Q 974.6 26.8 969.9 28.7 Q 965.2 30.5 961.45 31.55 Q 956.2 33 952 33.75 Q 947.7 34.55 941.2 34.55 Q 915.65 34.55 901.55 20.2 Q 887.4 5.75 887.4 -20.8 Q 887.4 -46.9 901.1 -62.3 Q 914.75 -77.8 936.9 -77.8 Q 946.85 -77.8 954.5 -74.95 Q 962.15 -72.05 967.9 -65.95 Z M 935.8 -63 Q 928.65 -63 923.65 -60.8 Q 918.6 -58.7 914.5 -54.55 Q 910.45 -50.35 908.35 -45.2 Q 906.25 -40.1 905.7 -33.3 L 962.25 -33.3 Q 962.05 -40.6 960.5 -45.85 Q 959 -51.1 956.1 -54.75 Q 952.95 -58.75 948.05 -60.9 Q 943.1 -63 935.8 -63 Z M 1016.3 -58.5 Q 1010.15 -54.75 1010.15 -47.2 Q 1010.15 -40.5 1013.8 -37.15 Q 1017.45 -33.9 1025.5 -31.8 Q 1029.5 -30.75 1034.45 -29.7 Q 1039.35 -28.7 1044.8 -27.4 Q 1056.7 -24.4 1062.7 -17.5 Q 1068.65 -10.65 1068.65 1.25 Q 1068.65 8.1 1065.95 14.35 Q 1063.2 20.45 1057.9 24.85 Q 1052.2 29.65 1045 32.15 Q 1037.75 34.65 1026.8 34.65 Q 1016.1 34.65 1006.8 31.75 Q 997.45 28.9 991.3 25.65 L 991.3 5.45 L 992.25 5.45 Q 994.55 7.25 997.7 9.45 Q 1000.8 11.65 1005.95 14.05 Q 1010.55 16.15 1016.1 17.8 Q 1021.55 19.4 1027.5 19.4 Q 1031.8 19.4 1036.7 18.45 Q 1041.55 17.4 1043.95 15.9 Q 1047.3 13.7 1048.85 11.2 Q 1050.25 8.7 1050.25 3.7 Q 1050.25 -2.7 1046.8 -5.95 Q 1043.3 -9.2 1034.4 -11.4 Q 1030.95 -12.25 1025.4 -13.4 Q 1019.85 -14.55 1015.15 -15.9 Q 1002.9 -19.45 997.35 -26.8 Q 991.8 -34.25 991.8 -44.8 Q 991.8 -59.25 1002.7 -68.35 Q 1013.6 -77.45 1031.7 -77.45 Q 1040.6 -77.45 1049.6 -75.25 Q 1058.6 -73.05 1064.7 -69.7 L 1064.7 -50.45 L 1063.75 -50.45 Q 1056.85 -55.9 1048.45 -59.05 Q 1039.95 -62.2 1031.3 -62.2 Q 1022.4 -62.2 1016.3 -58.5 Z M 621.5 -60.7 Q 613.85 -60.7 606.75 -57.25 Q 599.55 -53.9 593.15 -48.55 L 593.15 12.05 Q 600.25 15.5 605.3 16.75 Q 610.3 18 616.8 18 Q 630.75 18 638.5 7.75 Q 646.25 -2.5 646.25 -22.2 Q 646.25 -40.5 640.45 -50.55 Q 634.6 -60.7 621.5 -60.7 Z" fill="#000000"/>
	</g>
</svg>
