<?xml version="1.0"?>
<!DOCTYPE svg PUBLIC "-//W3C//DTD SVG 1.1//EN" "http://www.w3.org/Graphics/SVG/1.1/DTD/svg11.dtd">
<svg version='1.1' width='285px' height='132px' xmlns='http://www.w3.org/2000/svg' xmlns:xlink='http://www.w3.org/1999/xlink'>
	<g transform="translate(-558.3,90.95)">
		<path d="M 709 -84.25 L 709 -41.95 L 702.65 -41.95 L 702.65 -84.25 L 686.5 -84.25 L 686.5 -89.95 L 725.15 -89.95 L 725.15 -84.25 Z M 681.7 -89.95 L 681.7 -41.95 L 674.55 -41.95 L 653.35 -83.35 L 653.35 -41.95 L 647.35 -41.95 L 647.35 -89.95 L 656.4 -89.95 L 675.75 -51.95 L 675.75 -89.95 Z M 670.7 -1.55 Q 672.15 1 672.15 4.8 Q 672.15 10.05 669.5 13.6 Q 666.8 17.15 662.2 18.85 L 679.25 39.75 L 671 39.75 L 655.8 20.65 L 648.5 20.65 L 648.5 39.75 L 642.1 39.75 L 642.1 -8.25 L 654.5 -8.25 Q 658.6 -8.25 661.4 -7.8 Q 664.2 -7.35 666.7 -5.7 Q 669.2 -4.1 670.7 -1.55 Z M 648.5 -2.75 L 648.5 15.35 L 654.1 15.35 Q 656.85 15.35 659.05 14.85 Q 661.25 14.4 662.75 12.85 Q 664.15 11.5 664.85 9.65 Q 665.5 7.8 665.5 5.25 Q 665.5 3.15 664.75 1.55 Q 664 -0.1 662.45 -1.1 Q 661.1 -2 659.3 -2.35 Q 657.5 -2.75 654.8 -2.75 Z M 724.2 -8.25 L 724.2 39.75 L 717.8 39.75 L 717.8 -1.6 L 705.3 26.55 L 701.45 26.55 L 689.05 -1.6 L 689.05 39.75 L 683.05 39.75 L 683.05 -8.25 L 691.75 -8.25 L 703.75 18.5 L 715.35 -8.25 Z M 803.2 -86.75 L 803.2 -79.05 L 802.7 -79.05 Q 801.85 -79.8 800.5 -80.9 Q 799.2 -82 797.3 -83.05 Q 795.45 -84.05 793.3 -84.7 Q 791.15 -85.35 788.3 -85.35 Q 785.25 -85.35 782.5 -84.1 Q 779.75 -82.85 777.7 -80.4 Q 775.65 -77.95 774.55 -74.25 Q 773.4 -70.55 773.4 -65.9 Q 773.4 -60.95 774.6 -57.4 Q 775.8 -53.85 777.85 -51.4 Q 779.85 -49 782.55 -47.8 Q 785.3 -46.6 788.3 -46.6 Q 791.1 -46.6 793.45 -47.25 Q 795.8 -47.95 797.6 -49 Q 799.4 -49.95 800.7 -51 Q 801.95 -52.05 802.7 -52.8 L 803.2 -52.8 L 803.2 -45.2 Q 801.6 -44.45 800.25 -43.8 Q 798.8 -43.1 796.8 -42.45 Q 794.7 -41.8 792.95 -41.45 Q 791.15 -41.1 788.25 -41.1 Q 783.55 -41.1 779.65 -42.65 Q 775.65 -44.25 772.8 -47.35 Q 769.95 -50.5 768.35 -55.15 Q 766.8 -59.85 766.8 -65.9 Q 766.8 -71.9 768.3 -76.4 Q 769.85 -80.9 772.75 -84.2 Q 775.65 -87.4 779.55 -89.1 Q 783.5 -90.8 788.35 -90.8 Q 790.8 -90.8 792.9 -90.45 Q 795 -90.1 796.8 -89.55 Q 798.35 -89.05 800 -88.3 Q 801.6 -87.6 803.2 -86.75 Z M 804.25 -89.95 L 842.9 -89.95 L 842.9 -84.25 L 826.75 -84.25 L 826.75 -41.95 L 820.4 -41.95 L 820.4 -84.25 L 804.25 -84.25 Z M 735.55 -55.35 L 731.2 -41.95 L 724.8 -41.95 L 740.95 -89.95 L 748.8 -89.95 L 765 -41.95 L 758.25 -41.95 L 753.9 -55.35 Z M 752.15 -60.8 L 744.75 -83.45 L 737.35 -60.8 Z M 566.1 -57.4 Q 567.3 -53.85 569.35 -51.4 Q 571.35 -49 574.05 -47.8 Q 576.8 -46.6 579.8 -46.6 Q 582.6 -46.6 584.95 -47.25 Q 587.3 -47.95 589.1 -49 Q 590.9 -49.95 592.2 -51 Q 593.45 -52.05 594.2 -52.8 L 594.7 -52.8 L 594.7 -45.2 Q 593.1 -44.45 591.75 -43.8 Q 590.3 -43.1 588.3 -42.45 Q 586.2 -41.8 584.45 -41.45 Q 582.65 -41.1 579.75 -41.1 Q 575.05 -41.1 571.15 -42.65 Q 567.15 -44.25 564.3 -47.35 Q 561.45 -50.5 559.85 -55.15 Q 558.3 -59.85 558.3 -65.9 Q 558.3 -71.9 559.8 -76.4 Q 561.35 -80.9 564.25 -84.2 Q 567.15 -87.4 571.05 -89.1 Q 575 -90.8 579.85 -90.8 Q 582.3 -90.8 584.4 -90.45 Q 586.5 -90.1 588.3 -89.55 Q 589.85 -89.05 591.5 -88.3 Q 593.1 -87.6 594.7 -86.75 L 594.7 -79.05 L 594.2 -79.05 Q 593.35 -79.8 592 -80.9 Q 590.7 -82 588.8 -83.05 Q 586.95 -84.05 584.8 -84.7 Q 582.65 -85.35 579.8 -85.35 Q 576.75 -85.35 574 -84.1 Q 571.25 -82.85 569.2 -80.4 Q 567.15 -77.95 566.05 -74.25 Q 564.9 -70.55 564.9 -65.9 Q 564.9 -60.95 566.1 -57.4 Z M 629.8 -80.45 Q 627.9 -82.95 625.2 -84.15 Q 622.5 -85.4 619.15 -85.4 Q 615.7 -85.4 613.1 -84.2 Q 610.5 -83 608.5 -80.45 Q 606.6 -78 605.6 -74.3 Q 604.55 -70.6 604.55 -65.95 Q 604.55 -56.5 608.55 -51.45 Q 612.5 -46.45 619.15 -46.45 Q 625.85 -46.45 629.8 -51.45 Q 633.75 -56.5 633.75 -65.95 Q 633.75 -70.7 632.7 -74.35 Q 631.65 -78.05 629.8 -80.45 Z M 634.6 -84.4 Q 637.35 -81.25 638.85 -76.6 Q 640.35 -71.9 640.35 -65.95 Q 640.35 -60.1 638.9 -55.4 Q 637.4 -50.7 634.6 -47.5 Q 631.65 -44.15 627.75 -42.55 Q 623.85 -40.95 619.15 -40.95 Q 614.25 -40.95 610.35 -42.6 Q 606.45 -44.25 603.65 -47.5 Q 600.9 -50.7 599.4 -55.35 Q 597.95 -60.05 597.95 -65.95 Q 597.95 -72 599.45 -76.55 Q 600.9 -81.15 603.7 -84.4 Q 606.45 -87.6 610.4 -89.25 Q 614.3 -90.95 619.15 -90.95 Q 624.05 -90.95 627.95 -89.25 Q 631.9 -87.5 634.6 -84.4 Z M 589.75 -2.55 L 567.4 -2.55 L 567.4 10.95 L 588.8 10.95 L 588.8 16.65 L 567.4 16.65 L 567.4 39.75 L 561 39.75 L 561 -8.25 L 589.75 -8.25 Z M 605.15 -7.55 Q 609.05 -9.25 613.9 -9.25 Q 618.8 -9.25 622.7 -7.55 Q 626.65 -5.8 629.35 -2.7 Q 632.1 0.45 633.6 5.1 Q 635.1 9.8 635.1 15.75 Q 635.1 21.6 633.65 26.3 Q 632.15 31 629.35 34.2 Q 626.4 37.55 622.5 39.15 Q 618.6 40.75 613.9 40.75 Q 609 40.75 605.1 39.1 Q 601.2 37.45 598.4 34.2 Q 595.65 31 594.15 26.35 Q 592.7 21.65 592.7 15.75 Q 592.7 9.7 594.2 5.15 Q 595.65 0.55 598.45 -2.7 Q 601.2 -5.9 605.15 -7.55 Z M 607.85 -2.5 Q 605.25 -1.3 603.25 1.25 Q 601.35 3.7 600.35 7.4 Q 599.3 11.1 599.3 15.75 Q 599.3 25.2 603.3 30.25 Q 607.25 35.25 613.9 35.25 Q 620.6 35.25 624.55 30.25 Q 628.5 25.2 628.5 15.75 Q 628.5 11 627.45 7.35 Q 626.4 3.65 624.55 1.25 Q 622.65 -1.25 619.95 -2.45 Q 617.25 -3.7 613.9 -3.7 Q 610.45 -3.7 607.85 -2.5 Z" fill="#000000"/>
	</g>
</svg>
