<?xml version="1.0"?>
<!DOCTYPE svg PUBLIC "-//W3C//DTD SVG 1.1//EN" "http://www.w3.org/Graphics/SVG/1.1/DTD/svg11.dtd">
<svg version='1.1' width='50px' height='9px' xmlns='http://www.w3.org/2000/svg' xmlns:xlink='http://www.w3.org/1999/xlink'>
	<g transform="translate(163,-1631.2)">
		<path d="M -114.7 1632.4 Q -113.45 1633.65 -113.45 1635.45 Q -113.45 1637.25 -114.7 1638.5 Q -115.95 1639.7 -117.8 1639.7 Q -119.55 1639.7 -120.8 1638.5 Q -122 1637.25 -122 1635.45 Q -122 1633.65 -120.8 1632.4 Q -119.55 1631.2 -117.8 1631.2 Q -115.95 1631.2 -114.7 1632.4 Z M -155.7 1632.4 Q -154.45 1633.65 -154.45 1635.45 Q -154.45 1637.25 -155.7 1638.5 Q -156.95 1639.7 -158.8 1639.7 Q -160.55 1639.7 -161.8 1638.5 Q -163 1637.25 -163 1635.45 Q -163 1633.65 -161.8 1632.4 Q -160.55 1631.2 -158.8 1631.2 Q -156.95 1631.2 -155.7 1632.4 Z M -135.2 1632.4 Q -133.95 1633.65 -133.95 1635.45 Q -133.95 1637.25 -135.2 1638.5 Q -136.45 1639.7 -138.3 1639.7 Q -140.05 1639.7 -141.3 1638.5 Q -142.5 1637.25 -142.5 1635.45 Q -142.5 1633.65 -141.3 1632.4 Q -140.05 1631.2 -138.3 1631.2 Q -136.45 1631.2 -135.2 1632.4 Z" fill="#000000"/>
	</g>
</svg>
