<?xml version="1.0"?>
<!DOCTYPE svg PUBLIC "-//W3C//DTD SVG 1.1//EN" "http://www.w3.org/Graphics/SVG/1.1/DTD/svg11.dtd">
<svg version='1.1' width='50px' height='9px' xmlns='http://www.w3.org/2000/svg' xmlns:xlink='http://www.w3.org/1999/xlink'>
	<g transform="translate(24.8,4.25)">
		<path d="M -113.45 708.15 Q -113.45 709.95 -114.7 711.2 Q -115.95 712.4 -117.8 712.4 Q -119.55 712.4 -120.8 711.2 Q -122 709.95 -122 708.15 Q -122 706.35 -120.8 705.1 Q -119.55 703.9 -117.8 703.9 Q -115.95 703.9 -114.7 705.1 Q -113.45 706.35 -113.45 708.15 Z" transform="translate(138.2,-708.15)" fill="#000000"/>
		<path d="M -141.3 705.1 Q -140.05 703.9 -138.3 703.9 Q -136.45 703.9 -135.2 705.1 Q -133.95 706.35 -133.95 708.15 Q -133.95 709.95 -135.2 711.2 Q -136.45 712.4 -138.3 712.4 Q -140.05 712.4 -141.3 711.2 Q -142.5 709.95 -142.5 708.15 Q -142.5 706.35 -141.3 705.1 Z" transform="translate(138.2,-708.15)" fill="#000000"/>
		<path d="M -161.8 711.2 Q -163 709.95 -163 708.15 Q -163 706.35 -161.8 705.1 Q -160.55 703.9 -158.8 703.9 Q -156.95 703.9 -155.7 705.1 Q -154.45 706.35 -154.45 708.15 Q -154.45 709.95 -155.7 711.2 Q -156.95 712.4 -158.8 712.4 Q -160.55 712.4 -161.8 711.2 Z" transform="translate(138.2,-708.15)" fill="#000000"/>
	</g>
</svg>
