<?xml version="1.0"?>
<!DOCTYPE svg PUBLIC "-//W3C//DTD SVG 1.1//EN" "http://www.w3.org/Graphics/SVG/1.1/DTD/svg11.dtd">
<svg version='1.1' width='102px' height='47px' xmlns='http://www.w3.org/2000/svg' xmlns:xlink='http://www.w3.org/1999/xlink'>
	<g transform="translate(-342.519,-191.05)">
		<path d="M 389 193.75 L 388.5 193.5 Q 366.25 192 361 204.5 L 361.5 210.5 L 363.75 215.5 L 355 217 L 343 221 Q 341.75 220.25 343.75 215.75 L 346 211.5 Q 354.25 199.25 366.25 196 Q 373.5 187.75 391.75 193.25 L 403.25 195.5 L 411.25 198.75 L 421.25 204.75 L 427.25 209.75 L 435.25 218.75 L 440 226.5 L 444 236 L 444.5 237.75 L 441.75 237.25 L 428.75 231.75 L 421.25 227.25 L 409.75 218.5 Q 409 211 405.25 205.25 L 401.75 200.75 Q 398 196.25 393.25 194.5 Z" fill="#FFFFFF"/>
	</g>
</svg>
